<svg xmlns="http://www.w3.org/2000/svg" xmlns:xlink="http://www.w3.org/1999/xlink" version="1.1" class="marks" width="599" height="527" viewBox="0 0 599 527"><g fill="none" stroke-miterlimit="10" transform="translate(87,5)"><g class="mark-group role-frame root" role="graphics-object" aria-roledescription="group mark container"><g transform="translate(0,0)"><path class="background" aria-hidden="true" d="M0,0h500v500h-500Z"/><g><g class="mark-group role-axis" role="graphics-symbol" aria-roledescription="axis" aria-label="X-axis for a linear scale with values from 0 to 45"><g transform="translate(0.5,500.5)"><path class="background" aria-hidden="true" d="M0,0h0v0h0Z" pointer-events="none"/><g><g class="mark-rule role-axis-tick" pointer-events="none"><line transform="translate(0,0)" x2="0" y2="5" stroke="#888" stroke-width="1" opacity="1"/><line transform="translate(56,0)" x2="0" y2="5" stroke="#888" stroke-width="1" opacity="1"/><line transform="translate(111,0)" x2="0" y2="5" stroke="#888" stroke-width="1" opacity="1"/><line transform="translate(167,0)" x2="0" y2="5" stroke="#888" stroke-width="1" opacity="1"/><line transform="translate(222,0)" x2="0" y2="5" stroke="#888" stroke-width="1" opacity="1"/><line transform="translate(278,0)" x2="0" y2="5" stroke="#888" stroke-width="1" opacity="1"/><line transform="translate(333,0)" x2="0" y2="5" stroke="#888" stroke-width="1" opacity="1"/><line transform="translate(389,0)" x2="0" y2="5" stroke="#888" stroke-width="1" opacity="1"/><line transform="translate(444,0)" x2="0" y2="5" stroke="#888" stroke-width="1" opacity="1"/><line transform="translate(500,0)" x2="0" y2="5" stroke="#888" stroke-width="1" opacity="1"/></g><g class="mark-text role-axis-label" pointer-events="none"><text text-anchor="middle" transform="translate(0,15)" font-family="sans-serif" font-size="10px" fill="#000" opacity="1">0</text><text text-anchor="middle" transform="translate(56,15)" font-family="sans-serif" font-size="10px" fill="#000" opacity="1">5</text><text text-anchor="middle" transform="translate(111,15)" font-family="sans-serif" font-size="10px" fill="#000" opacity="1">10</text><text text-anchor="middle" transform="translate(167,15)" font-family="sans-serif" font-size="10px" fill="#000" opacity="1">15</text><text text-anchor="middle" transform="translate(222,15)" font-family="sans-serif" font-size="10px" fill="#000" opacity="1">20</text><text text-anchor="middle" transform="translate(278,15)" font-family="sans-serif" font-size="10px" fill="#000" opacity="1">25</text><text text-anchor="middle" transform="translate(333,15)" font-family="sans-serif" font-size="10px" fill="#000" opacity="1">30</text><text text-anchor="middle" transform="translate(389,15)" font-family="sans-serif" font-size="10px" fill="#000" opacity="1">35</text><text text-anchor="middle" transform="translate(444,15)" font-family="sans-serif" font-size="10px" fill="#000" opacity="1">40</text><text text-anchor="middle" transform="translate(500,15)" font-family="sans-serif" font-size="10px" fill="#000" opacity="1">45</text></g><g class="mark-rule role-axis-domain" pointer-events="none"><line transform="translate(0,0)" x2="500" y2="0" stroke="#888" stroke-width="1" opacity="1"/></g></g><path class="foreground" aria-hidden="true" d="" pointer-events="none" display="none"/></g></g><g class="mark-group role-scope" role="graphics-object" aria-roledescription="group mark container"><g transform="translate(0,23.809523809523853)"><path class="background" aria-hidden="true" d="M0,0h0v0h0Z"/><g><g class="mark-rect role-mark bars" role="graphics-symbol" aria-roledescription="rect mark container"><path d="M0,0h433v31.746031746031747h-433Z" fill="#FFD700"/><path d="M0,31.746031746031747h456v31.746031746031747h-456Z" fill="#C0C0C0"/><path d="M0,63.492063492063494h367v31.746031746031747h-367Z" fill="#614e1a"/></g><g class="mark-text role-mark" role="graphics-object" aria-roledescription="text mark container"><text text-anchor="end" transform="translate(428,18.873015873015873)" font-family="sans-serif" font-size="11px" fill="black">39</text><text text-anchor="end" transform="translate(451,50.61904761904762)" font-family="sans-serif" font-size="11px" fill="black">41</text><text text-anchor="end" transform="translate(362,82.36507936507937)" font-family="sans-serif" font-size="11px" fill="white">33</text></g></g><path class="foreground" aria-hidden="true" d="" display="none"/></g><g transform="translate(0,142.8571428571429)"><path class="background" aria-hidden="true" d="M0,0h0v0h0Z"/><g><g class="mark-rect role-mark bars" role="graphics-symbol" aria-roledescription="rect mark container"><path d="M0,0h422v31.746031746031747h-422Z" fill="#FFD700"/><path d="M0,31.746031746031747h356v31.746031746031747h-356Z" fill="#C0C0C0"/><path d="M0,63.492063492063494h211v31.746031746031747h-211Z" fill="#614e1a"/></g><g class="mark-text role-mark" role="graphics-object" aria-roledescription="text mark container"><text text-anchor="end" transform="translate(417,18.873015873015873)" font-family="sans-serif" font-size="11px" fill="black">38</text><text text-anchor="end" transform="translate(351,50.61904761904762)" font-family="sans-serif" font-size="11px" fill="black">32</text><text text-anchor="end" transform="translate(206,82.36507936507937)" font-family="sans-serif" font-size="11px" fill="white">19</text></g></g><path class="foreground" aria-hidden="true" d="" display="none"/></g><g transform="translate(0,261.9047619047619)"><path class="background" aria-hidden="true" d="M0,0h0v0h0Z"/><g><g class="mark-rect role-mark bars" role="graphics-symbol" aria-roledescription="rect mark container"><path d="M0,0h300v31.746031746031747h-300Z" fill="#FFD700"/><path d="M0,31.746031746031747h156v31.746031746031747h-156Z" fill="#C0C0C0"/><path d="M0,63.492063492063494h189v31.746031746031747h-189Z" fill="#614e1a"/></g><g class="mark-text role-mark" role="graphics-object" aria-roledescription="text mark container"><text text-anchor="end" transform="translate(295,18.873015873015873)" font-family="sans-serif" font-size="11px" fill="black">27</text><text text-anchor="end" transform="translate(151,50.61904761904762)" font-family="sans-serif" font-size="11px" fill="black">14</text><text text-anchor="end" transform="translate(184,82.36507936507937)" font-family="sans-serif" font-size="11px" fill="white">17</text></g></g><path class="foreground" aria-hidden="true" d="" display="none"/></g><g transform="translate(0,380.95238095238096)"><path class="background" aria-hidden="true" d="M0,0h0v0h0Z"/><g><g class="mark-rect role-mark bars" role="graphics-symbol" aria-roledescription="rect mark container"><path d="M0,0h111v31.746031746031747h-111Z" fill="#FFD700"/><path d="M0,31.746031746031747h133v31.746031746031747h-133Z" fill="#C0C0C0"/><path d="M0,63.492063492063494h122v31.746031746031747h-122Z" fill="#614e1a"/></g><g class="mark-text role-mark" role="graphics-object" aria-roledescription="text mark container"><text text-anchor="end" transform="translate(106,18.873015873015873)" font-family="sans-serif" font-size="11px" fill="black">10</text><text text-anchor="end" transform="translate(128,50.61904761904762)" font-family="sans-serif" font-size="11px" fill="black">12</text><text text-anchor="end" transform="translate(117,82.36507936507937)" font-family="sans-serif" font-size="11px" fill="white">11</text></g></g><path class="foreground" aria-hidden="true" d="" display="none"/></g></g><g class="mark-group role-axis" role="graphics-symbol" aria-roledescription="axis" aria-label="Y-axis for a discrete scale with 4 values: 🇺🇸, 🇨🇳, 🇯🇵, 🇫🇷"><g transform="translate(0.5,0.5)"><path class="background" aria-hidden="true" d="M0,0h0v0h0Z" pointer-events="none"/><g><g class="mark-rule role-axis-tick" pointer-events="none"><line transform="translate(0,71)" x2="0" y2="0" stroke="#888" stroke-width="1" opacity="1"/><line transform="translate(0,190)" x2="0" y2="0" stroke="#888" stroke-width="1" opacity="1"/><line transform="translate(0,309)" x2="0" y2="0" stroke="#888" stroke-width="1" opacity="1"/><line transform="translate(0,428)" x2="0" y2="0" stroke="#888" stroke-width="1" opacity="1"/></g><g class="mark-text role-axis-label" pointer-events="none"><text text-anchor="end" transform="translate(-12,80.92857142857147)" font-family="sans-serif" font-size="32px" fill="#000" opacity="1">🇺🇸</text><text text-anchor="end" transform="translate(-12,199.9761904761905)" font-family="sans-serif" font-size="32px" fill="#000" opacity="1">🇨🇳</text><text text-anchor="end" transform="translate(-12,319.0238095238095)" font-family="sans-serif" font-size="32px" fill="#000" opacity="1">🇯🇵</text><text text-anchor="end" transform="translate(-12,438.07142857142856)" font-family="sans-serif" font-size="32px" fill="#000" opacity="1">🇫🇷</text></g><g class="mark-rule role-axis-domain" pointer-events="none"><line transform="translate(0,0)" x2="0" y2="500" stroke="#888" stroke-width="1" opacity="1"/></g></g><path class="foreground" aria-hidden="true" d="" pointer-events="none" display="none"/></g></g></g><path class="foreground" aria-hidden="true" d="" display="none"/></g></g></g></svg>